<svg width="16" height="16" viewBox="0 0 16 16" fill="none" xmlns="http://www.w3.org/2000/svg">
  <path d="M4 0L4.75236 3.24764L8 4L4.75236 4.75236L4 8L3.24764 4.75236L0 4L3.24764 3.24764L4 0Z" fill="white"/>
  <path d="M12 0L12.7524 3.24764L16 4L12.7524 4.75236L12 8L11.2476 4.75236L8 4L11.2476 3.24764L12 0Z" fill="white"/>
  <path d="M4 8L4.75236 11.2476L8 12L4.75236 12.7524L4 16L3.24764 12.7524L0 12L3.24764 11.2476L4 8Z" fill="white"/>
  <path d="M12 8L12.7524 11.2476L16 12L12.7524 12.7524L12 16L11.2476 12.7524L8 12L11.2476 11.2476L12 8Z" fill="white"/>
</svg>
